<svg xmlns="http://www.w3.org/2000/svg" width="64" height="64" viewBox="0 0 64 64"><title>Gilgame studio crystal</title><rect x="1" y="1" width="62" height="62" rx="15" fill="#ecfaff" stroke="#b4e4fa" stroke-width="2"/><g stroke="#092b71" stroke-width="2" stroke-linejoin="round"><path d="M9 27 23 34 25 52 12 45Z" fill="#17b6ef"/><path d="m55 27-14 7-2 18 13-7Z" fill="#0788e6"/><path d="M32 7 46 24 43 45 32 57 21 45 18 24Z" fill="#24bdf5"/></g><path d="M32 10 21 24 29 31 32 27Z" fill="#c6ffff"/><path d="m32 10 11 14-8 7-3-4Z" fill="#0785e9"/><path d="m21 26 8 8 3 19-9-9Z" fill="#0e72dd"/><path d="m43 26-8 8-3 19 9-9Z" fill="#1550c8"/><path d="M32 11v16l-11-3m11 3 11-3M32 27l-3 7 3 19 3-19Z" fill="none" stroke="#edffff" stroke-width="1.4" stroke-linejoin="round"/><path d="m12 10 1.5 4.5L18 16l-4.5 1.5L12 22l-1.5-4.5L6 16l4.5-1.5Z" fill="#ffcd41"/><path d="m51 13 1 3 3 1-3 1-1 3-1-3-3-1 3-1Z" fill="#0788e6"/></svg>
